<svg width="288" height="27" viewBox="0 0 288 27" fill="none" xmlns="http://www.w3.org/2000/svg">
<path d="M24 2V15C24 15.5304 23.7893 16.0391 23.4142 16.4142C23.0391 16.7893 22.5304 17 22 17H8.41375L9.7075 18.2925C9.80041 18.3854 9.87411 18.4957 9.92439 18.6171C9.97468 18.7385 10.0006 18.8686 10.0006 19C10.0006 19.1314 9.97468 19.2615 9.92439 19.3829C9.87411 19.5043 9.80041 19.6146 9.7075 19.7075C9.61459 19.8004 9.50429 19.8741 9.3829 19.9244C9.2615 19.9747 9.1314 20.0006 9 20.0006C8.8686 20.0006 8.7385 19.9747 8.6171 19.9244C8.49571 19.8741 8.38541 19.8004 8.2925 19.7075L5.2925 16.7075C5.19952 16.6146 5.12576 16.5043 5.07544 16.3829C5.02512 16.2615 4.99921 16.1314 4.99921 16C4.99921 15.8686 5.02512 15.7385 5.07544 15.6171C5.12576 15.4957 5.19952 15.3854 5.2925 15.2925L8.2925 12.2925C8.48014 12.1049 8.73464 11.9994 9 11.9994C9.26536 11.9994 9.51986 12.1049 9.7075 12.2925C9.89514 12.4801 10.0006 12.7346 10.0006 13C10.0006 13.2654 9.89514 13.5199 9.7075 13.7075L8.41375 15H22V2H8V3C8 3.26522 7.89464 3.51957 7.70711 3.70711C7.51957 3.89464 7.26522 4 7 4C6.73478 4 6.48043 3.89464 6.29289 3.70711C6.10536 3.51957 6 3.26522 6 3V2C6 1.46957 6.21071 0.960859 6.58579 0.585786C6.96086 0.210714 7.46957 0 8 0H22C22.5304 0 23.0391 0.210714 23.4142 0.585786C23.7893 0.960859 24 1.46957 24 2ZM17 20C16.7348 20 16.4804 20.1054 16.2929 20.2929C16.1054 20.4804 16 20.7348 16 21V22H2V9H15.5863L14.2925 10.2925C14.1049 10.4801 13.9994 10.7346 13.9994 11C13.9994 11.2654 14.1049 11.5199 14.2925 11.7075C14.4801 11.8951 14.7346 12.0006 15 12.0006C15.2654 12.0006 15.5199 11.8951 15.7075 11.7075L18.7075 8.7075C18.8005 8.61463 18.8742 8.50434 18.9246 8.38294C18.9749 8.26154 19.0008 8.13142 19.0008 8C19.0008 7.86858 18.9749 7.73846 18.9246 7.61706C18.8742 7.49566 18.8005 7.38537 18.7075 7.2925L15.7075 4.2925C15.5199 4.10486 15.2654 3.99944 15 3.99944C14.7346 3.99944 14.4801 4.10486 14.2925 4.2925C14.1049 4.48014 13.9994 4.73464 13.9994 5C13.9994 5.26536 14.1049 5.51986 14.2925 5.7075L15.5863 7H2C1.46957 7 0.960859 7.21071 0.585786 7.58579C0.210714 7.96086 0 8.46957 0 9V22C0 22.5304 0.210714 23.0391 0.585786 23.4142C0.960859 23.7893 1.46957 24 2 24H16C16.5304 24 17.0391 23.7893 17.4142 23.4142C17.7893 23.0391 18 22.5304 18 22V21C18 20.7348 17.8946 20.4804 17.7071 20.2929C17.5196 20.1054 17.2652 20 17 20Z" fill="white"/>
<path d="M40.4551 11.1699C42.2142 11.5801 43.4492 12.0768 44.1602 12.6602C45.181 13.4896 45.6914 14.5651 45.6914 15.8867C45.6914 17.2812 45.1309 18.4342 44.0098 19.3457C42.6335 20.4486 40.6328 21 38.0078 21H28.5879V20.4941C29.4447 20.4941 30.0234 20.4167 30.3242 20.2617C30.6341 20.0977 30.8483 19.888 30.9668 19.6328C31.0944 19.3776 31.1582 18.7487 31.1582 17.7461V5.71484C31.1582 4.71224 31.0944 4.08333 30.9668 3.82812C30.8483 3.5638 30.6341 3.35417 30.3242 3.19922C30.0143 3.04427 29.4355 2.9668 28.5879 2.9668V2.46094H37.4746C39.5983 2.46094 41.1022 2.65234 41.9863 3.03516C42.8704 3.40885 43.5677 3.97396 44.0781 4.73047C44.5885 5.47786 44.8438 6.27539 44.8438 7.12305C44.8438 8.01628 44.5202 8.8138 43.873 9.51562C43.2259 10.2083 42.0866 10.7598 40.4551 11.1699ZM35.4785 10.8008C36.7728 10.8008 37.7253 10.6549 38.3359 10.3633C38.9557 10.0716 39.4297 9.66146 39.7578 9.13281C40.0859 8.60417 40.25 7.92969 40.25 7.10938C40.25 6.28906 40.0859 5.61914 39.7578 5.09961C39.4388 4.57096 38.9785 4.16992 38.377 3.89648C37.7754 3.62305 36.8092 3.49089 35.4785 3.5V10.8008ZM35.4785 11.8672V17.8145L35.4648 18.498C35.4648 18.9902 35.5879 19.3639 35.834 19.6191C36.0892 19.8652 36.4629 19.9883 36.9551 19.9883C37.6842 19.9883 38.3542 19.8288 38.9648 19.5098C39.5846 19.1816 40.0586 18.7122 40.3867 18.1016C40.7148 17.4818 40.8789 16.7936 40.8789 16.0371C40.8789 15.1712 40.6784 14.3965 40.2773 13.7129C39.8763 13.0202 39.3249 12.5371 38.623 12.2637C37.9212 11.9902 36.873 11.8581 35.4785 11.8672ZM53.6484 7.83398C54.7604 7.83398 55.7949 8.12109 56.752 8.69531C57.709 9.26953 58.4336 10.0853 58.9258 11.1426C59.4271 12.1999 59.6777 13.3574 59.6777 14.6152C59.6777 16.429 59.2174 17.9466 58.2969 19.168C57.1849 20.6445 55.6491 21.3828 53.6895 21.3828C51.7663 21.3828 50.2852 20.7083 49.2461 19.3594C48.207 18.0104 47.6875 16.4473 47.6875 14.6699C47.6875 12.8379 48.2161 11.2428 49.2734 9.88477C50.3398 8.51758 51.7982 7.83398 53.6484 7.83398ZM53.7031 8.80469C53.2383 8.80469 52.8372 8.98242 52.5 9.33789C52.1719 9.68424 51.9531 10.377 51.8438 11.416C51.7435 12.446 51.6934 13.8815 51.6934 15.7227C51.6934 16.6979 51.7572 17.6094 51.8848 18.457C51.985 19.1042 52.1992 19.5964 52.5273 19.9336C52.8555 20.2708 53.2292 20.4395 53.6484 20.4395C54.0586 20.4395 54.4004 20.3255 54.6738 20.0977C55.0293 19.7878 55.2663 19.3548 55.3848 18.7988C55.5671 17.9329 55.6582 16.1829 55.6582 13.5488C55.6582 11.9993 55.5716 10.9375 55.3984 10.3633C55.2253 9.77995 54.9701 9.35612 54.6328 9.0918C54.3958 8.90039 54.0859 8.80469 53.7031 8.80469ZM67.6484 7.83398C68.7604 7.83398 69.7949 8.12109 70.752 8.69531C71.709 9.26953 72.4336 10.0853 72.9258 11.1426C73.4271 12.1999 73.6777 13.3574 73.6777 14.6152C73.6777 16.429 73.2174 17.9466 72.2969 19.168C71.1849 20.6445 69.6491 21.3828 67.6895 21.3828C65.7663 21.3828 64.2852 20.7083 63.2461 19.3594C62.207 18.0104 61.6875 16.4473 61.6875 14.6699C61.6875 12.8379 62.2161 11.2428 63.2734 9.88477C64.3398 8.51758 65.7982 7.83398 67.6484 7.83398ZM67.7031 8.80469C67.2383 8.80469 66.8372 8.98242 66.5 9.33789C66.1719 9.68424 65.9531 10.377 65.8438 11.416C65.7435 12.446 65.6934 13.8815 65.6934 15.7227C65.6934 16.6979 65.7572 17.6094 65.8848 18.457C65.985 19.1042 66.1992 19.5964 66.5273 19.9336C66.8555 20.2708 67.2292 20.4395 67.6484 20.4395C68.0586 20.4395 68.4004 20.3255 68.6738 20.0977C69.0293 19.7878 69.2663 19.3548 69.3848 18.7988C69.5671 17.9329 69.6582 16.1829 69.6582 13.5488C69.6582 11.9993 69.5716 10.9375 69.3984 10.3633C69.2253 9.77995 68.9701 9.35612 68.6328 9.0918C68.3958 8.90039 68.0859 8.80469 67.7031 8.80469ZM80.8145 2.46094V14.6562L83.7812 11.7441C84.3919 11.1517 84.7702 10.7233 84.916 10.459C85.071 10.1947 85.1484 9.93945 85.1484 9.69336C85.1484 9.44727 85.0482 9.24219 84.8477 9.07812C84.6471 8.91406 84.2552 8.79557 83.6719 8.72266V8.2168H89.4004V8.72266C88.8535 8.75 88.375 8.88216 87.9648 9.11914C87.5547 9.34701 86.7526 10.0443 85.5586 11.2109L84.1641 12.5781L87.1719 16.9805C88.3841 18.7669 89.1042 19.7695 89.332 19.9883C89.6419 20.2982 90.0339 20.4714 90.5078 20.5078V21H83.9043V20.5078C84.196 20.5078 84.4056 20.4531 84.5332 20.3438C84.6699 20.2344 84.7383 20.1159 84.7383 19.9883C84.7383 19.7786 84.5469 19.3913 84.1641 18.8262L81.6348 15.1211L80.8145 15.9277V18.2246C80.8145 19.1999 80.9056 19.8105 81.0879 20.0566C81.2702 20.2936 81.6439 20.444 82.209 20.5078V21H75.6055V20.5078C76.1432 20.4531 76.526 20.2799 76.7539 19.9883C76.9089 19.7878 76.9863 19.1999 76.9863 18.2246V5.23633C76.9863 4.27018 76.8952 3.66862 76.7129 3.43164C76.5397 3.19466 76.1706 3.03971 75.6055 2.9668V2.46094H80.8145ZM103.414 2.03711L103.564 8.2168H103.004C102.74 6.66732 102.088 5.42318 101.049 4.48438C100.019 3.53646 98.9023 3.0625 97.6992 3.0625C96.7695 3.0625 96.0312 3.31315 95.4844 3.81445C94.9466 4.30664 94.6777 4.8763 94.6777 5.52344C94.6777 5.93359 94.7734 6.29818 94.9648 6.61719C95.2292 7.04557 95.653 7.4694 96.2363 7.88867C96.6647 8.18945 97.6536 8.72266 99.2031 9.48828C101.372 10.5547 102.835 11.5618 103.592 12.5098C104.339 13.4577 104.713 14.5423 104.713 15.7637C104.713 17.3132 104.107 18.6484 102.895 19.7695C101.691 20.8815 100.16 21.4375 98.3008 21.4375C97.7174 21.4375 97.166 21.3783 96.6465 21.2598C96.127 21.1413 95.4753 20.918 94.6914 20.5898C94.2539 20.4076 93.8939 20.3164 93.6113 20.3164C93.3743 20.3164 93.1237 20.4076 92.8594 20.5898C92.5951 20.7721 92.3809 21.0501 92.2168 21.4238H91.7109V14.4238H92.2168C92.6178 16.3926 93.388 17.8965 94.5273 18.9355C95.6758 19.9655 96.9108 20.4805 98.2324 20.4805C99.2533 20.4805 100.064 20.2025 100.666 19.6465C101.277 19.0905 101.582 18.4434 101.582 17.7051C101.582 17.2676 101.464 16.8438 101.227 16.4336C100.999 16.0234 100.648 15.6361 100.174 15.2715C99.6999 14.8978 98.8613 14.4147 97.6582 13.8223C95.972 12.9928 94.7598 12.2865 94.0215 11.7031C93.2832 11.1198 92.7135 10.4681 92.3125 9.74805C91.9206 9.02799 91.7246 8.23503 91.7246 7.36914C91.7246 5.89258 92.2669 4.63477 93.3516 3.5957C94.4362 2.55664 95.8034 2.03711 97.4531 2.03711C98.0547 2.03711 98.638 2.11003 99.2031 2.25586C99.6315 2.36523 100.151 2.57031 100.762 2.87109C101.382 3.16276 101.814 3.30859 102.061 3.30859C102.298 3.30859 102.484 3.23568 102.621 3.08984C102.758 2.94401 102.885 2.5931 103.004 2.03711H103.414ZM119.465 21.3828L115.965 12.0039L112.533 21.3828H111.822L108.418 12.1133C107.908 10.7005 107.475 9.77995 107.119 9.35156C106.891 9.0599 106.545 8.85026 106.08 8.72266V8.2168H112.533V8.72266C112.096 8.72266 111.795 8.78646 111.631 8.91406C111.467 9.04167 111.385 9.1875 111.385 9.35156C111.385 9.50651 111.531 9.97135 111.822 10.7461L113.695 15.7363L115.5 10.7461L115.363 10.418C115.09 9.73438 114.848 9.30143 114.639 9.11914C114.438 8.92773 114.124 8.79557 113.695 8.72266V8.2168H120.244V8.72266C119.734 8.75 119.41 8.82292 119.273 8.94141C119.137 9.05078 119.068 9.21029 119.068 9.41992C119.068 9.62044 119.201 10.0625 119.465 10.7461L121.27 15.7363L122.91 11.1426C123.147 10.4863 123.266 10.0397 123.266 9.80273C123.266 9.44727 123.179 9.1875 123.006 9.02344C122.833 8.85938 122.495 8.75911 121.994 8.72266V8.2168H125.781V8.72266C125.362 8.77734 125.029 8.92773 124.783 9.17383C124.537 9.41081 124.218 10.0944 123.826 11.2246L120.244 21.3828H119.465ZM134.08 19.1133C132.521 20.4896 131.122 21.1777 129.883 21.1777C129.154 21.1777 128.548 20.9408 128.064 20.4668C127.581 19.9837 127.34 19.3822 127.34 18.6621C127.34 17.6868 127.759 16.8118 128.598 16.0371C129.436 15.2533 131.264 14.2142 134.08 12.9199V11.6348C134.08 10.6686 134.025 10.0625 133.916 9.81641C133.816 9.5612 133.62 9.34245 133.328 9.16016C133.036 8.96875 132.708 8.87305 132.344 8.87305C131.751 8.87305 131.264 9.00521 130.881 9.26953C130.644 9.43359 130.525 9.625 130.525 9.84375C130.525 10.0352 130.653 10.2721 130.908 10.5547C131.255 10.9466 131.428 11.3249 131.428 11.6895C131.428 12.1361 131.259 12.5189 130.922 12.8379C130.594 13.1478 130.161 13.3027 129.623 13.3027C129.049 13.3027 128.566 13.1296 128.174 12.7832C127.791 12.4368 127.6 12.0312 127.6 11.5664C127.6 10.9102 127.859 10.2858 128.379 9.69336C128.898 9.0918 129.623 8.63151 130.553 8.3125C131.482 7.99349 132.449 7.83398 133.451 7.83398C134.663 7.83398 135.62 8.09375 136.322 8.61328C137.033 9.1237 137.493 9.67969 137.703 10.2812C137.831 10.6641 137.895 11.5436 137.895 12.9199V17.8828C137.895 18.4661 137.917 18.8353 137.963 18.9902C138.008 19.1361 138.077 19.2454 138.168 19.3184C138.259 19.3913 138.364 19.4277 138.482 19.4277C138.719 19.4277 138.961 19.2591 139.207 18.9219L139.617 19.25C139.161 19.9245 138.688 20.4167 138.195 20.7266C137.712 21.0273 137.161 21.1777 136.541 21.1777C135.812 21.1777 135.242 21.0091 134.832 20.6719C134.422 20.3255 134.171 19.806 134.08 19.1133ZM134.08 18.1152V13.8359C132.977 14.4831 132.157 15.1758 131.619 15.9141C131.264 16.4062 131.086 16.903 131.086 17.4043C131.086 17.8236 131.236 18.1927 131.537 18.5117C131.765 18.7578 132.084 18.8809 132.494 18.8809C132.95 18.8809 133.479 18.6257 134.08 18.1152ZM145.975 19.7012V24.459C145.975 25.1152 146.025 25.5618 146.125 25.7988C146.234 26.0358 146.398 26.209 146.617 26.3184C146.836 26.4277 147.264 26.4824 147.902 26.4824V26.9883H140.615V26.4824C141.18 26.4642 141.6 26.3047 141.873 26.0039C142.055 25.7943 142.146 25.252 142.146 24.377V10.8828C142.146 9.98047 142.042 9.40625 141.832 9.16016C141.622 8.90495 141.217 8.75911 140.615 8.72266V8.2168H145.975V9.89844C146.421 9.24219 146.877 8.76823 147.342 8.47656C148.007 8.04818 148.732 7.83398 149.516 7.83398C150.454 7.83398 151.307 8.13021 152.072 8.72266C152.847 9.3151 153.435 10.1354 153.836 11.1836C154.237 12.2227 154.438 13.3438 154.438 14.5469C154.438 15.8411 154.228 17.026 153.809 18.1016C153.398 19.168 152.797 19.9837 152.004 20.5488C151.22 21.1048 150.345 21.3828 149.379 21.3828C148.677 21.3828 148.021 21.2279 147.41 20.918C146.954 20.681 146.476 20.2754 145.975 19.7012ZM145.975 18.3203C146.758 19.4323 147.597 19.9883 148.49 19.9883C148.982 19.9883 149.388 19.7285 149.707 19.209C150.181 18.4434 150.418 16.985 150.418 14.834C150.418 12.6283 150.158 11.1198 149.639 10.3086C149.292 9.77083 148.827 9.50195 148.244 9.50195C147.324 9.50195 146.567 10.1673 145.975 11.498V18.3203ZM167.439 14.1504H160.426C160.508 15.8457 160.959 17.1855 161.779 18.1699C162.408 18.9264 163.165 19.3047 164.049 19.3047C164.596 19.3047 165.092 19.1543 165.539 18.8535C165.986 18.5436 166.464 17.9922 166.975 17.1992L167.439 17.5C166.747 18.9128 165.981 19.9154 165.143 20.5078C164.304 21.0911 163.333 21.3828 162.23 21.3828C160.335 21.3828 158.899 20.6536 157.924 19.1953C157.14 18.0195 156.748 16.5612 156.748 14.8203C156.748 12.6875 157.322 10.9922 158.471 9.73438C159.628 8.46745 160.982 7.83398 162.531 7.83398C163.826 7.83398 164.947 8.36719 165.895 9.43359C166.852 10.4909 167.367 12.0632 167.439 14.1504ZM164.076 13.2344C164.076 11.7669 163.994 10.7598 163.83 10.2129C163.675 9.66602 163.429 9.2513 163.092 8.96875C162.9 8.80469 162.645 8.72266 162.326 8.72266C161.852 8.72266 161.465 8.95508 161.164 9.41992C160.626 10.2311 160.357 11.3431 160.357 12.7559V13.2344H164.076ZM174.357 8.2168V11.1152C175.205 9.79362 175.948 8.91862 176.586 8.49023C177.224 8.05273 177.839 7.83398 178.432 7.83398C178.942 7.83398 179.348 7.99349 179.648 8.3125C179.958 8.6224 180.113 9.06445 180.113 9.63867C180.113 10.2493 179.963 10.7233 179.662 11.0605C179.37 11.3978 179.015 11.5664 178.596 11.5664C178.113 11.5664 177.693 11.4115 177.338 11.1016C176.982 10.7917 176.773 10.6185 176.709 10.582C176.618 10.5273 176.513 10.5 176.395 10.5C176.13 10.5 175.88 10.6003 175.643 10.8008C175.269 11.1107 174.986 11.5527 174.795 12.127C174.503 13.0111 174.357 13.9863 174.357 15.0527V17.9922L174.371 18.7578C174.371 19.2773 174.403 19.61 174.467 19.7559C174.576 20.002 174.736 20.1842 174.945 20.3027C175.164 20.4121 175.529 20.4805 176.039 20.5078V21H169.135V20.5078C169.691 20.4622 170.064 20.3118 170.256 20.0566C170.456 19.7923 170.557 19.1042 170.557 17.9922V10.9238C170.557 10.1947 170.52 9.72982 170.447 9.5293C170.356 9.27409 170.224 9.08724 170.051 8.96875C169.878 8.85026 169.572 8.76823 169.135 8.72266V8.2168H174.357Z" fill="white"/>
</svg>
