<svg width="82" height="83" viewBox="0 0 82 83" fill="none" xmlns="http://www.w3.org/2000/svg">
<path d="M17.0609 5.67378C8.94597 6.94127 8.66217 7.14997 7.4241 14.8561C6.76776 18.9415 6.46892 23.0847 5.79558 27.1666C5.61094 28.286 4.65719 29.2785 4.05637 30.3292C3.15716 29.706 1.97946 29.2729 1.40327 28.4292C-2.82355 22.2395 3.1922 3.72672 10.2242 1.717C13.8602 0.677857 17.7164 0.18094 21.4998 0.00224782C22.9454 -0.0660352 24.4653 1.43817 25.9514 2.22578C24.5943 3.09237 23.3217 4.16546 21.8554 4.76498C20.5048 5.31719 18.9461 5.36044 17.0609 5.67378Z" fill="white"/>
<path d="M37.8431 37.9845C36.594 35.8658 35.0776 33.8637 35.0259 31.8244C34.8319 24.1723 35.0574 16.5067 35.241 8.84892C35.3686 3.52396 37.4306 1.13213 42.7396 0.984249C45.9732 0.894176 49.5327 1.19953 52.4148 2.50215C56.5236 4.35921 60.1697 4.89574 64.2643 2.84014C66.1672 1.88484 68.332 1.38939 70.4267 0.888729C79.2426 -1.21843 81.1542 -0.0111961 81.5614 9.25275C81.8893 16.7146 81.3379 24.2137 81.2231 31.6969C81.1673 35.3283 79.1445 36.7736 75.8139 37.7016C71.2374 38.9767 66.912 41.1506 62.3383 42.4399C60.1936 43.0444 57.6398 42.853 55.4106 42.3741C49.6485 41.1365 43.9638 39.5383 37.8431 37.9845ZM40.6468 9.7293C40.6424 12.3919 40.5686 15.0565 40.6486 17.7166C40.7919 22.4836 39.2444 28.8496 41.7014 31.5853C44.432 34.6255 50.8481 34.3572 55.6626 35.5173C55.8075 35.5522 55.9848 35.4523 56.5891 35.3144C56.5891 28.4848 56.2374 21.5214 56.7073 14.614C57.0455 9.64255 53.5862 8.85573 50.4633 7.72419C47.1923 6.53903 43.5491 4.56096 40.6468 9.7293ZM75.7967 6.71674C73.1054 5.65338 63.6602 7.77441 62.2604 9.8659C61.8358 10.5004 61.6789 11.4216 61.6744 12.213C61.6321 19.6808 61.6492 27.149 61.6492 34.9404C64.9172 34.1832 67.7699 33.3681 70.678 32.8884C74.1419 32.3169 76.0171 30.6889 75.9759 26.9652C75.9045 20.5084 76.0185 14.0496 75.7967 6.71674Z" fill="white"/>
<path d="M37.5476 68.769C31.3175 68.1384 25.4764 67.8498 19.7698 66.8178C14.5063 65.866 12.1762 62.4396 12.9586 57.221C15.9192 58.6389 18.5973 60.2062 21.4749 61.1903C23.1308 61.7566 25.1094 61.3789 26.9428 61.426C26.6694 59.3259 27.092 56.7205 25.9993 55.2149C21.7667 49.3831 15.8741 47.1127 8.55421 47.8124C5.77916 48.0776 2.85578 46.7912 0 46.2121C1.29067 41.701 5.19341 43.6638 7.93037 43.2463C16.2759 41.9729 24.0672 43.2892 29.3078 50.6941C31.6623 54.0209 33.0838 58.0079 34.9287 61.6954C34.5251 62.0893 34.1214 62.4832 33.7178 62.8771C36.1336 63.1672 38.5625 63.3765 40.9623 63.765C45.394 64.4823 48.3031 66.8061 48.5733 71.5778C48.8387 76.2645 46.603 79.1649 42.0484 80.2157C31.1957 82.7194 20.2601 82.9255 9.40074 80.5815C6.80449 80.021 4.44956 77.9979 2.21199 76.3394C1.57485 75.8672 1.22989 73.767 1.652 73.369C2.41432 72.6503 4.23073 72.0177 4.95679 72.4475C15.5595 78.7239 26.8739 76.6615 38.068 75.3162C39.8104 75.1068 41.3603 73.2951 42.9993 72.2244C41.3313 71.0785 39.6633 69.9326 37.5476 68.769Z" fill="white"/>
<path d="M59.7671 78.956C58.7672 77.8094 57.3747 76.2183 57.6238 75.896C58.4287 74.8546 59.7533 73.8386 61.0266 73.5964C69.5303 71.9794 69.6257 72.0542 70.5286 63.545C71.0533 58.6013 71.1314 53.6095 71.6817 48.6696C71.875 46.934 72.8769 45.2885 73.8034 42.8188C75.1752 44.5501 76.3376 45.3483 76.28 46.0459C75.5382 55.0346 75.5762 64.2487 73.4027 72.8997C72.0392 78.3269 65.9758 79.9764 59.7671 78.956Z" fill="white"/>
</svg>
