<svg width="32" height="32" viewBox="0 0 32 32" fill="none" xmlns="http://www.w3.org/2000/svg">
<rect width="32" height="32" rx="3" fill="#020817"/>
<path d="M9.4984 7.65519C6.88311 8.00471 6.79165 8.06227 6.39265 10.1873C6.18112 11.3139 6.08481 12.4565 5.8678 13.5821C5.8083 13.8908 5.50092 14.1645 5.30729 14.4542C5.01749 14.2824 4.63794 14.1629 4.45225 13.9303C3.09002 12.2234 5.02878 7.11826 7.29507 6.56406C8.46688 6.2775 9.70967 6.14047 10.929 6.0912C11.3949 6.07237 11.8847 6.48717 12.3636 6.70436C11.9263 6.94333 11.5161 7.23925 11.0436 7.40458C10.6083 7.55685 10.106 7.56878 9.4984 7.65519Z" fill="white"/>
<path d="M15.2313 15.129C14.8959 14.5083 14.4886 13.9217 14.4747 13.3242C14.4226 11.0822 14.4832 8.83628 14.5325 6.59263C14.5668 5.03248 15.1205 4.3317 16.5464 4.28837C17.4148 4.26198 18.3707 4.35145 19.1448 4.7331C20.2483 5.2772 21.2275 5.4344 22.3272 4.83213C22.8382 4.55224 23.4196 4.40707 23.9822 4.26039C26.3498 3.64301 26.8632 3.99672 26.9726 6.71095C27.0606 8.89718 26.9125 11.0943 26.8817 13.2868C26.8667 14.3508 26.3235 14.7742 25.429 15.0461C24.1999 15.4197 23.0382 16.0566 21.8099 16.4344C21.2339 16.6115 20.548 16.5554 19.9494 16.4151C18.4018 16.0525 16.8751 15.5843 15.2313 15.129ZM15.9843 6.85057C15.9831 7.63068 15.9633 8.41139 15.9848 9.19075C16.0233 10.5874 15.6076 12.4526 16.2675 13.2541C17.0009 14.1449 18.724 14.0663 20.017 14.4062C20.0559 14.4164 20.1036 14.3871 20.2659 14.3467C20.2659 12.3457 20.1714 10.3055 20.2976 8.28173C20.3884 6.82516 19.4594 6.59463 18.6207 6.2631C17.7422 5.91586 16.7638 5.33631 15.9843 6.85057ZM25.4244 5.96793C24.7016 5.65638 22.1649 6.27781 21.789 6.8906C21.6749 7.07649 21.6328 7.34639 21.6316 7.57827C21.6202 9.76626 21.6248 11.9544 21.6248 14.2371C22.5025 14.0153 23.2687 13.7765 24.0497 13.6359C24.98 13.4685 25.4836 12.9915 25.4725 11.9005C25.4533 10.0087 25.4839 8.11636 25.4244 5.96793Z" fill="white"/>
<path d="M15.7846 23.4307C14.1762 23.2634 12.6682 23.1868 11.195 22.913C9.83609 22.6605 9.23456 21.7514 9.43654 20.3668C10.2009 20.743 10.8923 21.1588 11.6352 21.4199C12.0626 21.5702 12.5735 21.4699 13.0468 21.4825C12.9762 20.9252 13.0853 20.234 12.8032 19.8345C11.7105 18.2873 10.1892 17.6849 8.29947 17.8705C7.58305 17.9409 6.82833 17.5996 6.09106 17.4459C6.42427 16.2491 7.43183 16.7698 8.13842 16.6591C10.2929 16.3212 12.3044 16.6705 13.6573 18.6351C14.2652 19.5177 14.6322 20.5756 15.1085 21.5539C15.0043 21.6584 14.9001 21.7629 14.7959 21.8674C15.4195 21.9444 16.0466 22 16.6662 22.103C17.8103 22.2933 18.5613 22.9099 18.6311 24.1759C18.6996 25.4194 18.1224 26.1889 16.9465 26.4677C14.1447 27.132 11.3215 27.1866 8.51802 26.5647C7.84775 26.416 7.23979 25.8793 6.66212 25.4392C6.49764 25.3139 6.40858 24.7567 6.51756 24.6511C6.71436 24.4604 7.1833 24.2926 7.37074 24.4066C10.108 26.0719 13.029 25.5247 15.9189 25.1678C16.3688 25.1122 16.7689 24.6315 17.192 24.3474C16.7614 24.0434 16.3308 23.7394 15.7846 23.4307Z" fill="white"/>
<path d="M21.2134 26.9183C20.9896 26.5892 20.678 26.1325 20.7337 26.04C20.9138 25.7411 21.2103 25.4495 21.4952 25.38C23.3981 24.9158 23.4195 24.9373 23.6215 22.4948C23.7389 21.0758 23.7564 19.643 23.8795 18.225C23.9228 17.7269 24.147 17.2545 24.3543 16.5457C24.6613 17.0426 24.9214 17.2717 24.9085 17.4719C24.7425 20.052 24.751 22.6968 24.2647 25.18C23.9595 26.7378 22.6027 27.2112 21.2134 26.9183Z" fill="white"/>
</svg>
